<svg width="55" height="40" viewBox="0 0 55 40" fill="none" xmlns="http://www.w3.org/2000/svg">
<g filter="url(#filter0_d_1_760)">
<path d="M5.9175 17.24C5.9175 12.6533 6.66417 9.08 8.1575 6.52C9.65083 3.93333 12.2642 2.64 15.9975 2.64C19.7042 2.64 22.3042 3.93333 23.7975 6.52C25.2908 9.08 26.0375 12.6533 26.0375 17.24C26.0375 21.9067 25.2908 25.5333 23.7975 28.12C22.3042 30.7067 19.7042 32 15.9975 32C12.2642 32 9.65083 30.7067 8.1575 28.12C6.66417 25.5333 5.9175 21.9067 5.9175 17.24ZM22.4375 17.24C22.4375 14.92 22.2775 12.96 21.9575 11.36C21.6642 9.73333 21.0375 8.42667 20.0775 7.44C19.1442 6.45333 17.7842 5.96 15.9975 5.96C14.1842 5.96 12.7975 6.45333 11.8375 7.44C10.9042 8.42667 10.2775 9.73333 9.9575 11.36C9.66417 12.96 9.5175 14.92 9.5175 17.24C9.5175 19.64 9.66417 21.6533 9.9575 23.28C10.2775 24.9067 10.9042 26.2133 11.8375 27.2C12.7975 28.1867 14.1842 28.68 15.9975 28.68C17.7842 28.68 19.1442 28.1867 20.0775 27.2C21.0375 26.2133 21.6642 24.9067 21.9575 23.28C22.2775 21.6533 22.4375 19.64 22.4375 17.24ZM30.5947 29.08C33.9814 26.36 36.6347 24.1333 38.5547 22.4C40.4747 20.64 42.088 18.8133 43.3947 16.92C44.728 15 45.3947 13.12 45.3947 11.28C45.3947 9.54667 44.968 8.18667 44.1147 7.2C43.288 6.18667 41.9414 5.68 40.0747 5.68C38.2614 5.68 36.848 6.25333 35.8347 7.4C34.848 8.52 34.3147 10.0267 34.2347 11.92H30.7147C30.8214 8.93333 31.728 6.62667 33.4347 5C35.1414 3.37333 37.3414 2.56 40.0347 2.56C42.7814 2.56 44.9547 3.32 46.5547 4.84C48.1814 6.36 48.9947 8.45333 48.9947 11.12C48.9947 13.3333 48.328 15.4933 46.9947 17.6C45.688 19.68 44.1947 21.52 42.5147 23.12C40.8347 24.6933 38.688 26.5333 36.0747 28.64H49.8347V31.68H30.5947V29.08Z" fill="#E21E26"/>
</g>
<defs>
<filter id="filter0_d_1_760" x="0.9175" y="0.559998" width="53.9172" height="39.44" filterUnits="userSpaceOnUse" color-interpolation-filters="sRGB">
<feFlood flood-opacity="0" result="BackgroundImageFix"/>
<feColorMatrix in="SourceAlpha" type="matrix" values="0 0 0 0 0 0 0 0 0 0 0 0 0 0 0 0 0 0 127 0" result="hardAlpha"/>
<feOffset dy="3"/>
<feGaussianBlur stdDeviation="2.5"/>
<feComposite in2="hardAlpha" operator="out"/>
<feColorMatrix type="matrix" values="0 0 0 0 0 0 0 0 0 0 0 0 0 0 0 0 0 0 0.15 0"/>
<feBlend mode="normal" in2="BackgroundImageFix" result="effect1_dropShadow_1_760"/>
<feBlend mode="normal" in="SourceGraphic" in2="effect1_dropShadow_1_760" result="shape"/>
</filter>
</defs>
</svg>
