<svg width="55" height="41" viewBox="0 0 55 41" fill="none" xmlns="http://www.w3.org/2000/svg">
<g filter="url(#filter0_d_1_763)">
<path d="M5.64406 17.24C5.64406 12.6533 6.39073 9.08 7.88406 6.52C9.3774 3.93333 11.9907 2.64 15.7241 2.64C19.4307 2.64 22.0307 3.93333 23.5241 6.52C25.0174 9.08 25.7641 12.6533 25.7641 17.24C25.7641 21.9067 25.0174 25.5333 23.5241 28.12C22.0307 30.7067 19.4307 32 15.7241 32C11.9907 32 9.3774 30.7067 7.88406 28.12C6.39073 25.5333 5.64406 21.9067 5.64406 17.24ZM22.1641 17.24C22.1641 14.92 22.0041 12.96 21.6841 11.36C21.3907 9.73333 20.7641 8.42667 19.8041 7.44C18.8707 6.45333 17.5107 5.96 15.7241 5.96C13.9107 5.96 12.5241 6.45333 11.5641 7.44C10.6307 8.42667 10.0041 9.73333 9.68406 11.36C9.39073 12.96 9.24406 14.92 9.24406 17.24C9.24406 19.64 9.39073 21.6533 9.68406 23.28C10.0041 24.9067 10.6307 26.2133 11.5641 27.2C12.5241 28.1867 13.9107 28.68 15.7241 28.68C17.5107 28.68 18.8707 28.1867 19.8041 27.2C20.7641 26.2133 21.3907 24.9067 21.6841 23.28C22.0041 21.6533 22.1641 19.64 22.1641 17.24ZM30.6813 10.36C30.8679 7.90667 31.8146 5.98667 33.5213 4.6C35.2279 3.21333 37.4413 2.52 40.1613 2.52C41.9746 2.52 43.5346 2.85333 44.8413 3.52C46.1746 4.16 47.1746 5.04 47.8413 6.16C48.5346 7.28 48.8813 8.54667 48.8813 9.96C48.8813 11.6133 48.4013 13.04 47.4413 14.24C46.5079 15.44 45.2813 16.2133 43.7613 16.56V16.76C45.4946 17.1867 46.8679 18.0267 47.8813 19.28C48.8946 20.5333 49.4012 22.1733 49.4012 24.2C49.4012 25.72 49.0546 27.0933 48.3613 28.32C47.6679 29.52 46.6279 30.4667 45.2413 31.16C43.8546 31.8533 42.1879 32.2 40.2413 32.2C37.4146 32.2 35.0946 31.4667 33.2812 30C31.4679 28.5067 30.4546 26.4 30.2413 23.68H33.7613C33.9479 25.28 34.6013 26.5867 35.7213 27.6C36.8413 28.6133 38.3346 29.12 40.2013 29.12C42.0679 29.12 43.4813 28.64 44.4413 27.68C45.4279 26.6933 45.9213 25.4267 45.9213 23.88C45.9213 21.88 45.2546 20.44 43.9213 19.56C42.5879 18.68 40.5746 18.24 37.8813 18.24H36.9613V15.2H37.9213C40.3746 15.1733 42.2279 14.7733 43.4813 14C44.7346 13.2 45.3613 11.9733 45.3613 10.32C45.3613 8.90667 44.8946 7.77333 43.9613 6.92C43.0546 6.06667 41.7479 5.64 40.0412 5.64C38.3879 5.64 37.0546 6.06667 36.0413 6.92C35.0279 7.77333 34.4279 8.92 34.2413 10.36H30.6813Z" fill="#E21E26"/>
</g>
<defs>
<filter id="filter0_d_1_763" x="0.644073" y="0.519997" width="53.7572" height="39.68" filterUnits="userSpaceOnUse" color-interpolation-filters="sRGB">
<feFlood flood-opacity="0" result="BackgroundImageFix"/>
<feColorMatrix in="SourceAlpha" type="matrix" values="0 0 0 0 0 0 0 0 0 0 0 0 0 0 0 0 0 0 127 0" result="hardAlpha"/>
<feOffset dy="3"/>
<feGaussianBlur stdDeviation="2.5"/>
<feComposite in2="hardAlpha" operator="out"/>
<feColorMatrix type="matrix" values="0 0 0 0 0 0 0 0 0 0 0 0 0 0 0 0 0 0 0.15 0"/>
<feBlend mode="normal" in2="BackgroundImageFix" result="effect1_dropShadow_1_763"/>
<feBlend mode="normal" in="SourceGraphic" in2="effect1_dropShadow_1_763" result="shape"/>
</filter>
</defs>
</svg>
